# Watertight Stanford Bunny
# Source: https://raw.githubusercontent.com/OpenGP/OpenGP/master/data/bunny.off
# Converted from OFF to OBJ
v -91.924400 -22.107100 148.532000
v -4.600610 -47.358000 45.485800
v -42.848400 -5.626220 163.042000
v -71.679200 -1.886420 156.035000
v -21.991000 -53.356700 45.646800
v 8.636380 -45.353800 43.403300
v -50.959300 -44.114000 44.807700
v -60.135800 -41.466700 46.569500
v -0.660407 -54.202800 51.854000
v -44.257700 -40.007900 48.006400
v 33.348000 -31.204300 48.299600
v -43.068200 -16.107900 128.272000
v -40.013600 -39.649900 53.522600
v -1.839250 -54.383200 58.061500
v -28.525900 2.978600 123.450000
v 10.993500 -34.241300 123.287000
v -32.868600 1.946300 174.164000
v -78.260900 -46.052900 143.478000
v 3.766810 -56.813800 62.081700
v -37.649800 -41.994300 64.477800
v -87.111100 1.747340 121.229000
v 18.067600 -39.365500 109.816000
v -9.979930 -55.911800 61.502000
v -2.574720 -56.760200 65.452300
v 9.362850 -54.132000 62.999300
v -21.338200 21.346300 182.357000
v -14.856800 -54.021100 66.678100
v -80.093700 -53.436700 127.986000
v -27.950200 -38.196600 66.532000
v -4.082730 -59.301900 73.902000
v -38.339300 -43.520500 81.083100
v -26.524400 -38.590700 109.803000
v -67.927200 7.988500 159.311000
v -25.299700 8.632280 181.326000
v -9.101680 -58.172200 77.897800
v 5.055030 -56.401400 78.855300
v -27.283200 -16.250400 125.297000
v -30.240000 -40.868400 77.918500
v -17.575000 -57.584600 82.009700
v -57.185100 -43.750900 78.445900
v -42.579700 -42.606600 83.550200
v -36.389500 -44.165800 92.090100
v 18.276500 -48.025000 94.289000
v 6.623380 -19.956900 131.729000
v -48.754600 -45.490500 87.301400
v 7.700520 -56.675200 86.056800
v -8.518600 22.189700 171.448000
v -4.046270 -34.036800 124.302000
v -54.251500 -44.820300 92.718600
v -11.765600 -56.724500 92.323400
v -64.726000 -45.453400 87.599500
v -8.816940 -51.080700 98.838900
v -25.980200 -44.988700 93.958400
v 4.988180 -52.311100 96.613600
v -49.189600 -44.026800 97.231300
v -40.290900 -41.689200 99.023700
v -13.501400 -11.181800 129.721000
v 23.708400 -46.742200 95.284400
v -19.393500 -45.061700 98.062100
v -7.750040 -43.851300 101.613000
v 25.577100 -23.844900 123.207000
v -75.465300 -36.588400 103.356000
v -61.321100 -42.585900 101.648000
v -5.021170 -43.299400 111.103000
v 2.048290 -43.856300 102.269000
v -31.725500 -41.633700 103.353000
v -17.704300 -42.025500 108.318000
v 12.970700 -47.089600 102.729000
v 17.791500 -24.114300 127.105000
v -65.900200 -37.704900 109.344000
v -50.874700 -37.916300 110.068000
v -49.234300 -31.353900 118.096000
v -44.167800 -40.942800 106.192000
v -59.334900 -34.699200 152.527000
v 16.752000 -43.637000 47.770000
v -46.832200 -45.501000 36.230100
v -38.948400 -41.604300 42.732300
v -53.189100 22.305900 98.540400
v -56.130600 -30.930900 144.738000
v 20.987300 -32.413700 120.785000
v -32.285900 3.190500 162.445000
v -15.799000 9.143300 162.627000
v 29.181400 -36.338700 48.333100
v -72.641100 -49.501000 137.232000
v 43.371000 -32.994900 49.812900
v -45.152100 -25.011700 122.761000
v 12.849500 -51.168200 55.858500
v 20.531100 -47.893200 55.218500
v 56.206000 -27.044200 58.703800
v 26.655800 -44.044400 61.342400
v 38.980600 -30.993500 58.045500
v 52.240500 -28.996000 65.178700
v 14.331300 -53.139700 70.390300
v 5.057970 -41.061000 114.111000
v 36.752200 -37.304700 65.944400
v 43.195200 -26.525900 70.470400
v 44.916300 -25.016300 68.524500
v 26.213200 -40.078000 103.765000
v -57.756000 -35.583400 113.844000
v -63.799200 -38.781400 112.805000
v 22.182400 -46.702300 66.203400
v 27.449900 -46.566000 78.955300
v -93.349100 -42.355700 121.270000
v 18.046200 -53.046600 78.757100
v -25.993200 0.379363 159.898000
v -60.935900 -43.147500 123.194000
v -57.100400 -37.893400 130.465000
v 28.582100 -36.100800 110.049000
v 31.922800 -42.574300 86.955700
v -53.543600 -29.754200 137.255000
v -21.856700 12.189900 184.612000
v -32.302300 6.025780 167.137000
v 37.976900 -36.072300 92.394100
v 36.795500 9.938440 102.375000
v -49.516000 -8.616120 144.244000
v -62.317300 -36.198700 137.026000
v -40.141200 -2.030370 160.150000
v -34.250900 0.385663 152.321000
v -64.910800 -39.416000 146.776000
v -23.545000 2.819530 157.784000
v -36.784000 -4.701810 157.992000
v -48.853400 -30.804600 128.818000
v -66.939900 -52.340200 123.482000
v 16.800900 16.450400 35.012700
v 48.588500 -14.100200 42.646300
v 22.463500 15.495500 44.151800
v 21.544800 1.845270 35.764300
v -62.024600 60.718300 178.626000
v 44.240200 4.960440 47.459900
v 37.789000 16.265500 86.014000
v 55.215900 -4.204410 49.659100
v 27.839400 18.024000 48.945700
v -50.386500 -1.550560 137.003000
v -9.474130 25.949500 169.570000
v -32.780500 21.675600 104.821000
v -92.725300 -9.266230 119.444000
v -62.419200 46.945000 166.725000
v 61.544100 -8.345360 61.223000
v 21.726300 27.132200 54.968800
v 60.599800 -15.476400 69.460600
v 36.429600 11.322400 59.459900
v -85.028300 -5.440090 109.746000
v 31.356500 20.333000 76.642500
v 40.109400 10.217000 68.997200
v -12.299900 12.928900 163.867000
v 44.346600 3.004510 84.888900
v 37.126900 12.254000 76.090900
v -92.243500 -15.910900 113.741000
v 41.163400 7.155790 93.598800
v -47.488600 -13.282300 135.318000
v 46.265400 -8.179070 81.714500
v 44.530000 -24.107000 90.830700
v -69.953900 -13.399500 60.877000
v -84.995000 -6.145380 143.869000
v -52.965700 -22.734300 142.264000
v -44.231900 -1.112660 169.500000
v -54.644400 -27.016600 153.072000
v -66.398800 -24.195400 156.478000
v -50.659300 -12.319000 149.842000
v -30.408900 -30.438100 118.504000
v -55.391300 -12.018500 155.461000
v -71.183600 53.013900 181.431000
v -88.992500 -15.130300 152.500000
v -66.072900 46.077500 172.880000
v -84.900000 2.448900 98.466100
v -89.815300 -16.454000 100.335000
v -80.243300 -29.703200 153.671000
v -87.958400 -5.061260 93.913500
v -90.527800 -12.320900 147.244000
v -76.524200 51.057200 179.580000
v -14.918400 21.600400 182.638000
v -44.628500 -6.105230 129.847000
v -73.324700 37.542700 173.539000
v -91.077600 -16.920900 135.587000
v 53.883300 -11.031000 73.739300
v -16.905700 -34.362000 120.940000
v -67.571400 30.231800 169.581000
v 43.615700 -5.756720 101.122000
v -95.361400 -22.298200 124.295000
v -61.379300 -6.046110 155.346000
v -23.625000 13.418200 184.615000
v 47.293700 -15.333600 73.643200
v -37.839200 -27.732800 122.579000
v -72.700500 20.324400 167.250000
v 4.138640 -2.640750 131.252000
v -38.365700 9.021160 174.649000
v -61.771000 20.367800 158.649000
v 18.375200 -3.215510 127.635000
v -75.982400 -13.227000 156.053000
v 53.522500 -20.720500 72.811800
v 36.992800 -25.033000 110.066000
v -69.332100 -38.746800 150.334000
v -30.613500 6.886820 179.366000
v -6.255780 -26.512400 129.122000
v -64.323800 19.199900 83.178600
v -80.317400 -48.945000 117.796000
v -69.126100 -12.610300 35.736400
v -63.173200 -18.712200 35.676900
v -62.181800 -23.802100 38.479500
v -57.781300 -47.503300 37.932300
v -34.258800 -48.821600 41.857600
v -27.184900 -54.926700 38.350900
v -73.215200 -5.853190 37.140100
v -59.715500 -19.866400 39.376500
v -64.299000 -28.414700 42.630100
v -26.949500 -48.216700 48.921700
v -83.241700 -26.641700 107.767000
v -67.472500 -7.358570 44.928100
v -33.766600 -38.367300 50.496500
v -83.448500 -31.278000 95.942200
v -78.747600 36.808200 170.287000
v -76.446400 0.844251 153.541000
v -89.816300 -20.832600 91.907300
v -57.577900 -9.027960 47.821500
v -52.113000 -35.601900 49.660500
v -30.179600 -44.076200 87.549600
v -49.707500 -15.665400 53.162100
v -27.133700 -37.460900 52.886300
v -51.361800 -31.228300 51.973300
v -29.567900 -36.143000 56.116100
v -20.814900 -45.505700 50.687900
v -16.982800 -48.146500 50.203900
v -10.756400 -51.218900 52.058500
v -45.890300 -38.315100 55.589600
v -17.543600 -51.642100 61.190400
v -86.910600 -48.249700 126.552000
v -74.323400 -41.212700 90.600800
v -72.544100 41.270200 150.491000
v -86.241000 -48.462100 116.393000
v -20.549500 -52.788300 93.522100
v -56.692600 21.793100 91.149500
v -41.600500 21.975900 97.867100
v -77.168000 17.865100 162.425000
v -24.275800 -54.296900 80.824600
v -44.159200 25.562500 36.505700
v -77.928000 50.422400 176.630000
v -39.624200 22.611600 45.607700
v -74.722200 30.545800 149.580000
v -66.633400 -36.140400 39.311800
v -47.383500 4.321010 168.210000
v -69.245900 51.503100 165.205000
v -68.933300 -1.276000 43.171700
v -50.447700 -16.970300 46.783500
v -27.238300 24.558900 95.408100
v -58.686400 -0.455978 48.089700
v -53.344200 -27.104400 48.741300
v -81.508600 3.197660 134.940000
v -32.403500 11.579000 50.957900
v -28.362400 23.770900 49.374600
v -58.028400 -3.457310 58.671600
v -56.220000 -7.344430 55.542600
v -54.098300 -12.065800 56.342800
v -91.048300 -8.163900 132.721000
v -73.879100 41.898400 166.826000
v -27.406400 29.302500 61.658000
v -79.417100 42.422700 170.942000
v 4.211240 31.142100 95.062200
v -30.296100 19.033000 58.729600
v -17.988500 27.205200 35.375000
v -59.006500 -1.994550 156.531000
v 25.700900 18.614600 101.556000
v 45.730100 -3.298400 73.924700
v -76.955400 7.103410 153.082000
v -71.868600 38.662700 157.159000
v -12.981900 14.744200 118.071000
v -79.469800 -16.763600 70.525200
v -74.432300 48.589700 172.811000
v 23.853700 25.029400 85.213600
v -31.438000 32.965700 76.056000
v -70.927400 12.493500 142.990000
v -78.666700 33.131800 164.677000
v -76.651000 5.744080 72.683100
v -86.690400 -10.291300 80.062200
v -79.332900 1.614090 149.214000
v -35.758200 19.961400 77.256800
v -63.825200 61.859900 172.966000
v -86.926800 -40.543700 141.686000
v 31.626700 4.911760 114.747000
v -84.321700 2.100530 82.822100
v -86.937500 -7.895160 83.873300
v -39.944500 11.774400 168.824000
v -84.476700 -26.611700 82.291100
v -88.208400 -2.591670 133.440000
v -27.998900 35.890200 86.484900
v -77.785200 19.350800 156.895000
v -65.980800 58.760400 162.415000
v -82.120500 7.513510 91.319500
v -33.798100 24.670700 85.707100
v -89.188100 -28.831100 137.203000
v -76.359000 10.402300 149.675000
v -74.373900 20.575500 154.717000
v -81.669800 0.398659 111.218000
v -5.931340 7.417090 126.272000
v -6.249490 21.906500 110.771000
v -17.431300 21.493000 187.632000
v 48.262400 -2.106960 69.659200
v -11.640500 30.426300 180.768000
v -12.323700 26.073300 183.725000
v -23.704500 18.180200 112.571000
v 4.740170 20.159600 114.009000
v -63.236000 1.465230 151.399000
v -14.009900 2.273030 126.769000
v 23.600200 11.540200 114.963000
v -60.409300 2.501100 146.917000
v 9.160880 13.201300 121.841000
v -52.850600 18.955700 108.522000
v -34.598300 29.003900 43.519400
v -37.931700 30.335600 34.020200
v -49.287700 14.230400 119.368000
v -23.174300 34.003900 93.081200
v -25.792400 12.313400 118.795000
v 13.653000 30.072000 89.200800
v 15.386900 19.039400 105.705000
v -59.262600 9.093750 39.166400
v -1.769310 19.623000 112.448000
v 57.736000 -4.241870 69.480500
v -67.050200 -51.390900 115.968000
v 6.056300 33.322000 86.684600
v -12.321900 33.988000 95.371200
v 42.572900 2.152900 63.160200
v -27.521500 29.705300 35.054200
v -47.303600 11.904500 40.370100
v -44.086500 18.927200 108.904000
v 16.543900 24.050000 95.188700
v 16.543700 22.484100 102.010000
v 31.546100 -6.082550 118.947000
v -50.679000 13.029300 33.986900
v -49.879900 3.632040 128.572000
v -13.214800 24.287100 100.008000
v 14.661100 6.499920 124.571000
v -39.786900 8.732010 125.235000
v -36.136700 13.520500 117.796000
v 1.522780 23.068700 34.369100
v -67.215900 6.123770 39.423300
v -70.974100 1.711720 35.324700
v 8.842330 23.406700 36.448900
v 1.230350 24.877100 42.933000
v 12.833600 25.347600 45.770800
v -25.933400 29.534300 42.629400
v 33.296400 1.622360 39.148400
v -38.263600 -43.384200 35.035000
v 21.856700 21.252400 47.340100
v -19.549400 28.063900 45.351000
v 29.029500 6.967740 46.187200
v 4.043170 29.056100 48.140000
v -61.138100 17.831900 106.193000
v -41.404900 11.504800 48.205100
v -73.048100 7.171440 141.978000
v 29.413700 19.481900 59.849300
v 10.759000 30.003400 54.457100
v 2.939970 30.958100 55.811500
v -60.226300 8.722200 121.242000
v -46.156800 12.844100 61.592400
v 35.970800 6.663600 53.794500
v -6.756330 30.906700 47.994900
v 51.458900 5.256360 58.207900
v 0.974109 34.399700 63.800500
v -36.224100 10.712000 57.376000
v -17.926900 35.205400 58.822300
v -13.521100 36.784800 63.449900
v -52.720100 6.766640 51.597700
v 18.618700 27.659900 60.807700
v -67.420000 16.226900 99.929400
v 28.214400 20.989500 67.029500
v -41.180500 11.412500 159.450000
v 6.061840 32.555700 68.469500
v -38.198800 16.861200 71.294400
v -59.725900 15.090300 70.106300
v -22.129700 38.899800 73.836000
v -56.197500 6.282400 62.710000
v -33.044500 12.732000 60.434200
v -73.010800 -36.634100 75.823900
v 19.123900 29.114300 68.666200
v -47.764500 17.128300 74.873700
v -65.219900 3.083860 63.261200
v 0.634553 22.907700 100.326000
v -10.482600 38.245100 75.164600
v -41.578000 20.325100 80.627600
v -72.585200 7.867260 114.389000
v -69.533000 51.073700 154.993000
v -68.893200 14.905500 74.875200
v 9.110430 33.110700 73.945800
v -69.159000 9.220910 129.012000
v -55.875700 21.239200 80.468100
v -75.449800 -52.794700 116.700000
v -2.318070 37.148300 81.664000
v -78.912500 6.820880 128.729000
v -6.162130 37.243100 87.870500
v -75.272300 13.748100 96.531100
v -75.814800 14.077000 84.494600
v -68.942700 58.737500 179.937000
v -54.570200 2.146390 147.737000
v -20.967000 21.333700 172.319000
v -18.615900 39.204300 84.799000
v -42.810800 22.207000 88.830100
v -31.216400 29.374800 33.512000
v -20.727300 25.444500 33.552100
v -11.345700 24.416700 33.965600
v -42.953200 27.013100 33.658900
v -11.567600 18.641700 34.229300
v -31.467600 21.175400 33.803800
v 11.617400 12.610700 34.475300
v -3.864320 14.248600 39.074800
v -32.836600 17.004500 38.645900
v 5.660900 6.639190 38.931700
v -39.532300 14.674500 34.073800
v 4.920490 -4.426770 34.084300
v -49.492700 8.911450 33.503100
v -37.661500 7.096250 38.291200
v 10.208100 -5.087300 35.002700
v 17.156300 -1.810630 34.293900
v -63.461700 8.375520 33.398500
v -41.421300 3.302220 33.901600
v 2.056540 -3.455200 34.474800
v 21.068100 -8.676360 35.958400
v 33.519400 -9.287840 35.281300
v 41.911800 -4.037420 39.860500
v 24.770800 -16.735100 34.642900
v -34.116000 0.825000 38.313000
v 5.149000 -11.214000 33.796000
v -30.530900 -3.372240 38.238900
v 29.096100 -21.873700 36.181300
v -43.764300 -5.110170 33.666200
v -34.153100 -13.028700 33.640800
v -19.097400 1.699430 38.397700
v -31.001000 -10.952000 33.992000
v 12.492300 -21.416400 34.680400
v -30.588000 -12.730000 34.116000
v -48.493800 -8.901570 35.962500
v -27.438800 -9.916870 38.000600
v 55.833400 -20.281500 49.098700
v -70.863700 -5.925420 33.852300
v -26.454800 -15.922100 37.824600
v 1.295070 -18.041600 34.363500
v -54.105200 -14.169000 33.410500
v -36.479900 -13.264300 36.232600
v 20.826900 -26.892200 35.125700
v 37.001700 -26.742100 40.577800
v -36.970900 -24.365900 34.949000
v -92.306600 -28.630300 118.458000
v 26.980100 -29.351000 39.379500
v -52.469300 -31.170300 62.102600
v -4.251670 -8.219790 38.488300
v 12.291600 -36.363700 34.639200
v -33.472800 -22.012000 33.803000
v -29.280900 -22.756100 37.038100
v 1.309090 -24.027600 38.736800
v 12.792600 -30.671900 35.196500
v -50.686400 -22.886800 33.982900
v -31.633100 -33.252200 38.146700
v 9.239970 -33.075400 37.934300
v -60.651300 -19.415700 33.991300
v -41.525800 -26.999000 33.884200
v -35.277800 -34.212000 34.689000
v 4.819000 -37.290000 34.907000
v 5.774000 -37.588000 34.789000
v -64.562900 -23.803900 35.049200
v 2.330480 -35.221700 39.357000
v 3.562120 -43.479300 34.587400
v -74.997300 -38.030500 108.372000
v -75.636100 -28.352800 71.017900
v -13.697000 -32.854300 38.804300
v 17.412300 -42.160100 35.460100
v -77.992600 -32.977300 108.274000
v -66.470200 -29.806700 35.224400
v -60.736600 -40.378900 72.667100
v -76.298700 -45.131800 109.971000
v -86.541600 -15.610200 109.028000
v -75.112500 -0.670504 68.972600
v -8.797390 -41.248600 35.068300
v -84.140800 -28.633200 111.450000
v -65.090000 -41.192900 35.047700
v -8.211300 -45.303100 34.586700
v -81.950800 -19.647400 75.734600
v -26.485800 -38.083200 38.870400
v -17.114000 -39.576000 39.369000
v -14.993000 -39.858000 39.545000
v -24.138300 -43.680000 34.962400
v 4.730990 -45.676100 34.994300
v -24.766400 -52.487900 34.948600
v -12.151300 -50.409000 36.089000
v -46.839000 -41.840900 73.223600
v -64.064000 -32.134900 65.768100
v -90.147900 -38.017100 112.635000
v -80.202800 -5.675720 71.861200
v -52.548200 -19.754100 56.849000
v -47.338700 -43.717200 34.691000
v -71.003000 41.066500 149.428000
v -43.701100 2.745960 147.628000
v -14.437500 15.922200 162.675000
v -57.633400 5.343170 137.108000
v -62.059000 59.066900 163.662000
v -66.563500 49.029700 153.315000
v -29.756800 12.803600 158.594000
v -63.126100 43.589700 158.586000
v -29.378400 5.954620 154.405000
v -70.257900 24.147900 145.965000
v -63.026700 6.751060 142.438000
v -50.037700 -3.257720 142.809000
v -66.498300 32.767100 148.723000
v -17.873000 8.674060 159.047000
v -62.924300 21.740300 148.444000
f 57 37 194
f 166 207 468
f 468 142 166
f 186 193 181
f 185 57 44
f 189 163 167
f 161 157 159
f 168 213 166
f 243 246 217
f 161 3 156
f 485 266 474
f 263 212 233
f 28 84 18
f 146 178 151
f 446 454 445
f 385 123 28
f 123 84 28
f 497 500 502
f 317 123 385
f 84 192 18
f 495 492 137
f 63 70 62
f 2 9 223
f 356 138 131
f 44 194 16
f 36 46 35
f 25 19 14
f 144 146 262
f 129 131 417
f 27 24 30
f 179 253 136
f 87 25 9
f 14 19 24
f 6 87 9
f 46 43 54
f 51 63 227
f 50 54 52
f 208 214 245
f 40 51 466
f 280 213 168
f 49 63 51
f 2 6 9
f 37 160 176
f 35 46 50
f 178 149 114
f 71 70 63
f 193 186 156
f 40 49 51
f 71 99 70
f 466 482 40
f 45 49 40
f 200 7 8
f 25 36 24
f 161 158 157
f 49 55 63
f 63 55 71
f 71 72 99
f 148 179 136
f 454 341 487
f 22 65 68
f 45 55 49
f 50 46 54
f 85 91 11
f 482 41 40
f 41 45 40
f 65 94 64
f 92 97 91
f 7 10 215
f 73 71 55
f 161 159 3
f 128 164 137
f 10 224 215
f 500 488 493
f 56 55 45
f 183 72 71
f 73 55 56
f 73 183 71
f 183 86 72
f 85 92 91
f 482 31 41
f 7 77 10
f 482 224 20
f 41 56 45
f 104 58 43
f 494 393 490
f 19 25 24
f 22 16 65
f 20 31 482
f 224 13 20
f 41 42 56
f 31 42 41
f 56 66 73
f 73 66 183
f 10 209 13
f 66 160 183
f 3 17 156
f 220 20 13
f 38 42 31
f 54 43 68
f 118 489 496
f 66 56 42
f 29 38 20
f 20 38 31
f 152 151 178
f 152 96 182
f 174 154 283
f 29 20 220
f 194 37 176
f 38 216 42
f 42 53 66
f 160 66 32
f 64 60 65
f 380 286 493
f 216 53 42
f 24 36 30
f 68 65 54
f 286 492 493
f 293 300 315
f 187 498 502
f 44 57 194
f 380 493 488
f 53 59 66
f 176 160 32
f 34 111 181
f 438 85 11
f 221 218 206
f 146 149 178
f 25 14 9
f 67 66 59
f 66 67 32
f 22 80 16
f 392 365 489
f 246 486 217
f 217 252 251
f 177 173 184
f 176 32 67
f 43 58 68
f 5 221 206
f 16 48 94
f 185 44 188
f 15 37 57
f 140 138 316
f 64 94 48
f 16 194 48
f 68 98 22
f 30 36 35
f 50 230 39
f 5 222 221
f 222 223 225
f 131 125 417
f 2 222 5
f 50 39 35
f 44 69 188
f 27 35 39
f 222 2 223
f 64 176 67
f 52 60 59
f 64 48 176
f 27 30 35
f 223 14 23
f 60 64 67
f 24 27 23
f 9 14 223
f 24 23 14
f 105 121 120
f 96 95 91
f 262 146 151
f 25 101 93
f 495 493 492
f 491 392 499
f 25 93 36
f 123 116 84
f 317 106 123
f 116 119 84
f 123 106 116
f 100 106 317
f 342 132 126
f 119 116 74
f 479 463 75
f 111 34 112
f 107 116 106
f 76 7 200
f 99 106 100
f 145 47 112
f 122 107 106
f 107 110 116
f 79 74 116
f 124 127 411
f 329 135 299
f 501 82 120
f 122 106 72
f 83 88 75
f 91 97 96
f 72 106 99
f 110 79 116
f 108 80 22
f 365 494 489
f 157 74 79
f 17 34 193
f 11 91 83
f 431 131 138
f 102 58 104
f 122 110 107
f 155 157 79
f 77 7 76
f 90 95 101
f 88 90 101
f 110 155 79
f 98 68 58
f 102 109 58
f 96 152 113
f 498 270 502
f 112 81 82
f 58 113 98
f 96 113 95
f 95 113 109
f 118 115 499
f 479 75 6
f 81 112 117
f 86 122 72
f 82 81 105
f 89 85 431
f 374 368 384
f 89 140 92
f 274 163 212
f 112 17 3
f 105 120 82
f 125 131 431
f 182 296 262
f 171 47 298
f 380 488 228
f 134 47 145
f 153 485 469
f 276 492 286
f 88 101 87
f 202 2 5
f 93 104 36
f 95 109 102
f 11 83 441
f 43 46 36
f 85 89 92
f 43 36 104
f 159 117 3
f 70 99 100
f 75 87 6
f 87 101 25
f 105 81 121
f 93 101 104
f 81 117 121
f 120 121 118
f 463 83 75
f 445 439 424
f 152 191 113
f 95 102 101
f 115 155 150
f 121 117 159
f 276 391 128
f 83 95 90
f 150 133 499
f 83 90 88
f 121 159 115
f 109 113 58
f 288 232 244
f 65 16 94
f 115 118 121
f 101 102 104
f 174 169 154
f 129 356 131
f 151 182 262
f 150 499 115
f 113 191 108
f 75 88 87
f 47 171 112
f 98 113 108
f 98 108 22
f 298 295 171
f 95 83 91
f 171 111 112
f 112 3 117
f 145 112 82
f 2 481 479
f 186 240 156
f 280 282 213
f 417 340 129
f 219 442 486
f 1 167 163
f 289 1 174
f 495 137 502
f 205 246 204
f 349 141 132
f 349 364 144
f 103 289 179
f 339 307 249
f 144 364 147
f 393 134 490
f 358 367 371
f 174 283 253
f 204 246 243
f 148 136 142
f 471 468 207
f 187 301 498
f 318 388 257
f 126 344 127
f 163 274 169
f 147 143 130
f 349 144 141
f 141 354 344
f 124 126 127
f 132 141 344
f 257 312 318
f 463 441 83
f 126 132 344
f 130 149 146
f 338 342 124
f 144 147 146
f 143 147 364
f 500 495 502
f 205 204 199
f 142 21 292
f 141 144 354
f 166 142 168
f 168 142 165
f 333 336 124
f 481 480 473
f 130 146 147
f 137 187 502
f 342 126 124
f 367 378 275
f 174 253 179
f 243 208 204
f 155 159 157
f 155 115 159
f 178 191 152
f 431 138 89
f 282 280 273
f 365 393 494
f 138 140 89
f 4 212 189
f 170 211 173
f 162 170 173
f 190 92 140
f 474 273 485
f 178 278 326
f 492 128 137
f 397 396 321
f 479 6 2
f 175 140 316
f 140 175 190
f 175 182 190
f 182 97 190
f 212 163 189
f 182 96 97
f 57 185 302
f 175 296 182
f 172 133 150
f 224 442 219
f 367 275 371
f 164 173 177
f 211 170 256
f 189 167 158
f 155 110 122
f 172 37 15
f 162 164 128
f 172 150 12
f 13 224 10
f 234 230 216
f 158 167 74
f 189 158 180
f 187 177 33
f 157 158 74
f 172 15 331
f 173 211 184
f 12 86 183
f 481 202 480
f 12 183 37
f 192 119 74
f 167 18 192
f 74 167 192
f 301 33 4
f 178 326 191
f 180 158 161
f 61 108 191
f 37 172 12
f 12 122 86
f 150 155 12
f 283 247 387
f 8 246 205
f 181 193 34
f 326 61 191
f 137 177 187
f 80 108 61
f 184 33 177
f 4 189 180
f 187 33 301
f 50 52 230
f 12 155 122
f 481 2 202
f 162 173 164
f 151 152 182
f 54 65 52
f 307 339 308
f 61 69 80
f 80 69 16
f 21 142 136
f 278 188 326
f 33 184 4
f 246 215 219
f 65 60 52
f 154 169 274
f 326 188 61
f 136 253 283
f 61 188 69
f 273 474 282
f 232 323 135
f 37 183 160
f 391 162 128
f 69 44 16
f 52 59 230
f 468 148 142
f 218 221 225
f 29 225 38
f 472 8 239
f 341 201 77
f 218 220 209
f 269 284 369
f 496 494 490
f 225 29 220
f 28 196 385
f 184 211 233
f 466 51 372
f 383 348 498
f 498 348 270
f 500 493 495
f 490 145 501
f 206 209 201
f 202 5 206
f 27 39 234
f 363 346 231
f 416 415 127
f 276 128 492
f 200 8 472
f 433 446 445
f 465 472 239
f 38 234 216
f 234 39 230
f 227 63 62
f 239 205 465
f 229 196 226
f 27 234 225
f 430 421 425
f 137 164 177
f 28 18 277
f 28 226 196
f 219 215 224
f 215 8 7
f 358 248 347
f 76 200 487
f 23 225 223
f 145 82 501
f 229 226 103
f 226 28 277
f 205 199 465
f 201 209 77
f 51 227 372
f 358 371 248
f 433 424 428
f 207 166 213
f 400 403 404
f 489 118 499
f 230 53 216
f 197 208 203
f 210 207 213
f 209 206 218
f 212 4 184
f 480 202 341
f 395 288 378
f 34 17 112
f 277 1 289
f 213 282 210
f 77 76 341
f 222 225 221
f 321 308 339
f 227 210 282
f 167 1 277
f 197 198 208
f 379 383 352
f 210 464 207
f 201 202 206
f 59 53 230
f 197 452 198
f 260 180 156
f 393 281 26
f 10 77 209
f 161 156 180
f 225 234 38
f 224 482 442
f 198 204 208
f 13 209 220
f 282 372 227
f 218 225 220
f 358 353 367
f 233 212 184
f 18 167 277
f 208 243 214
f 227 62 210
f 281 393 365
f 243 217 251
f 214 243 251
f 210 62 464
f 226 277 103
f 315 294 265
f 276 286 241
f 246 219 486
f 276 267 391
f 241 267 276
f 267 236 391
f 501 496 490
f 241 286 380
f 236 170 391
f 241 254 267
f 264 241 380
f 170 236 256
f 267 256 236
f 264 254 241
f 228 264 380
f 254 256 267
f 254 271 256
f 185 305 293
f 238 264 228
f 211 256 271
f 488 238 228
f 254 291 271
f 288 284 269
f 264 291 254
f 288 244 284
f 244 310 284
f 291 264 238
f 271 233 211
f 103 277 289
f 487 453 439
f 70 460 62
f 376 324 257
f 257 324 312
f 255 275 269
f 490 134 145
f 255 258 275
f 497 290 238
f 291 285 271
f 285 233 271
f 269 275 288
f 290 291 238
f 329 376 319
f 179 289 174
f 405 414 443
f 136 283 21
f 322 237 235
f 249 258 255
f 258 371 275
f 248 258 249
f 1 163 169
f 388 394 319
f 464 471 207
f 370 353 361
f 497 270 290
f 440 103 179
f 181 295 26
f 244 232 135
f 291 290 285
f 169 174 1
f 84 119 192
f 347 237 322
f 248 371 258
f 398 400 397
f 325 261 324
f 251 245 214
f 186 26 281
f 290 263 285
f 263 233 285
f 181 26 186
f 349 132 342
f 278 330 188
f 270 348 290
f 185 330 305
f 208 242 203
f 484 103 440
f 114 149 261
f 240 186 281
f 433 445 424
f 390 272 287
f 165 389 287
f 257 388 319
f 299 135 332
f 272 279 287
f 403 425 404
f 348 274 290
f 245 361 314
f 165 292 389
f 244 319 310
f 329 319 244
f 274 212 263
f 375 469 272
f 279 165 287
f 348 247 274
f 290 274 263
f 378 288 275
f 335 242 334
f 347 248 237
f 281 260 240
f 171 295 111
f 245 250 361
f 361 250 370
f 469 279 272
f 279 168 165
f 154 274 247
f 245 251 250
f 469 485 279
f 279 485 273
f 279 273 280
f 283 154 247
f 260 156 240
f 239 8 205
f 208 245 242
f 280 168 279
f 142 292 165
f 489 494 496
f 422 438 441
f 303 300 305
f 293 305 300
f 270 497 502
f 245 334 242
f 296 316 356
f 261 130 268
f 376 257 319
f 175 316 296
f 341 76 487
f 178 114 278
f 296 320 262
f 4 180 301
f 261 149 130
f 316 138 356
f 298 47 297
f 450 454 446
f 313 261 325
f 332 15 311
f 57 302 15
f 278 303 330
f 303 305 330
f 180 260 301
f 303 313 300
f 454 487 439
f 392 301 260
f 392 304 301
f 283 387 21
f 319 394 310
f 376 294 315
f 294 376 329
f 311 299 332
f 491 498 304
f 302 293 265
f 237 249 307
f 265 294 329
f 296 356 320
f 309 346 352
f 118 496 120
f 262 320 144
f 261 268 324
f 392 491 304
f 139 364 349
f 133 328 491
f 352 328 309
f 278 261 303
f 265 329 299
f 249 237 248
f 323 306 309
f 302 265 311
f 328 331 309
f 278 114 261
f 172 328 133
f 293 315 265
f 172 331 328
f 311 265 299
f 259 398 397
f 332 323 309
f 15 302 311
f 97 92 190
f 185 293 302
f 331 332 309
f 235 237 307
f 15 332 331
f 245 314 334
f 303 261 313
f 120 496 501
f 295 297 26
f 375 153 469
f 324 268 312
f 135 323 332
f 195 231 384
f 321 396 308
f 334 314 412
f 387 247 348
f 370 374 353
f 272 390 381
f 170 162 391
f 354 320 356
f 259 397 321
f 129 354 356
f 21 387 379
f 379 352 346
f 344 354 129
f 363 389 379
f 195 363 231
f 231 306 78
f 381 195 384
f 340 344 129
f 353 358 347
f 292 379 389
f 363 379 346
f 389 363 195
f 340 127 344
f 454 439 445
f 390 389 195
f 375 368 370
f 390 195 381
f 21 379 292
f 384 231 395
f 148 440 179
f 374 384 395
f 383 491 352
f 59 60 67
f 364 373 143
f 139 349 342
f 231 78 395
f 374 378 353
f 352 491 328
f 268 143 373
f 272 381 375
f 362 373 364
f 382 268 373
f 144 320 354
f 387 383 379
f 232 78 323
f 322 314 361
f 268 130 143
f 314 327 412
f 342 350 139
f 383 387 348
f 342 338 350
f 268 382 312
f 350 362 139
f 498 301 304
f 327 314 322
f 336 338 124
f 362 366 373
f 378 374 395
f 353 378 367
f 362 357 366
f 382 373 366
f 325 324 376
f 242 335 203
f 188 330 185
f 322 361 347
f 382 318 312
f 336 337 338
f 337 345 338
f 338 345 350
f 350 351 362
f 362 351 357
f 78 232 395
f 365 260 281
f 346 309 306
f 361 353 347
f 351 350 345
f 315 313 376
f 313 315 300
f 376 313 325
f 366 386 382
f 386 318 382
f 386 388 318
f 405 443 403
f 345 355 351
f 375 381 368
f 351 355 357
f 357 360 366
f 392 260 365
f 23 27 225
f 333 337 336
f 337 355 345
f 360 377 366
f 366 377 386
f 333 398 337
f 355 360 357
f 386 377 388
f 355 359 360
f 398 259 337
f 297 295 298
f 231 346 306
f 322 235 327
f 395 232 288
f 307 308 235
f 428 424 426
f 343 337 259
f 343 355 337
f 377 394 388
f 134 393 297
f 370 368 374
f 499 392 489
f 343 359 355
f 360 369 377
f 259 339 343
f 269 359 255
f 204 198 457
f 381 384 368
f 26 297 393
f 359 369 360
f 377 369 394
f 457 465 199
f 244 135 329
f 390 287 389
f 78 306 323
f 399 235 308
f 259 321 339
f 199 204 457
f 255 359 343
f 369 284 394
f 269 369 359
f 134 297 47
f 339 249 343
f 249 255 343
f 394 284 310
f 215 246 8
f 194 176 48
f 362 364 139
f 383 498 491
f 402 403 400
f 458 462 447
f 340 416 127
f 437 427 418
f 437 448 427
f 463 444 437
f 463 479 444
f 497 238 488
f 500 497 488
f 295 181 111
f 448 444 451
f 479 459 444
f 402 414 405
f 422 437 418
f 425 433 430
f 491 499 133
f 468 440 148
f 416 418 415
f 434 447 443
f 468 471 440
f 471 484 440
f 473 479 481
f 125 431 438
f 431 85 438
f 124 411 402
f 448 451 447
f 444 459 456
f 471 464 484
f 229 103 484
f 415 411 127
f 402 405 403
f 407 411 410
f 464 467 484
f 467 229 484
f 402 400 333
f 17 193 156
f 438 422 416
f 411 407 402
f 422 418 416
f 400 398 333
f 462 475 433
f 433 475 446
f 441 437 422
f 474 461 282
f 467 196 229
f 441 463 437
f 400 401 397
f 125 416 417
f 62 460 464
f 460 467 464
f 485 153 266
f 266 461 474
f 456 459 455
f 461 372 282
f 443 425 403
f 201 341 202
f 467 385 196
f 438 11 441
f 414 434 443
f 460 70 100
f 335 432 203
f 467 460 100
f 197 203 432
f 412 432 335
f 266 483 461
f 467 317 385
f 153 483 266
f 100 317 467
f 370 250 375
f 375 250 153
f 448 434 427
f 462 476 475
f 412 452 432
f 486 483 153
f 452 197 432
f 483 372 461
f 124 402 333
f 250 252 153
f 252 486 153
f 327 408 412
f 483 466 372
f 334 412 335
f 442 483 486
f 452 457 198
f 465 457 452
f 399 408 235
f 235 408 327
f 435 412 408
f 435 452 412
f 472 465 452
f 406 408 399
f 396 399 308
f 423 435 408
f 443 433 425
f 406 413 408
f 423 408 413
f 423 429 435
f 483 442 466
f 475 450 446
f 401 399 396
f 449 452 435
f 449 472 452
f 442 482 466
f 401 406 399
f 406 409 413
f 420 434 407
f 409 406 404
f 487 472 449
f 251 252 250
f 401 404 406
f 479 473 459
f 487 200 472
f 417 416 340
f 125 438 416
f 448 447 434
f 397 401 396
f 404 421 409
f 437 444 448
f 447 462 443
f 424 423 413
f 453 487 449
f 407 434 414
f 401 400 404
f 425 421 404
f 402 407 414
f 443 462 433
f 423 424 436
f 415 418 427
f 427 434 420
f 415 427 420
f 420 407 410
f 415 420 410
f 415 410 411
f 252 217 486
f 430 433 428
f 426 424 413
f 413 409 419
f 426 413 419
f 428 426 419
f 419 409 421
f 428 419 421
f 430 428 421
f 476 462 477
f 477 462 458
f 458 447 451
f 451 444 456
f 458 451 456
f 458 456 455
f 477 458 455
f 476 477 455
f 455 459 473
f 455 473 470
f 473 480 478
f 470 473 478
f 455 470 478
f 476 455 478
f 478 480 341
f 478 341 454
f 454 450 475
f 478 454 475
f 476 478 475
f 449 435 429
f 453 449 429
f 429 423 436
f 453 429 436
f 436 424 439
f 453 436 439
