# connected 20 tooth gear
v 0.000000 0.220000 0.000000
v 0.000000 -0.220000 0.000000
v 0.869166 0.220000 -0.137662
v 0.975936 0.220000 -0.089161
v 1.238966 0.220000 -0.050628
v 1.238966 0.220000 0.050628
v 0.975936 0.220000 0.089161
v 0.869166 0.220000 0.137662
v 0.955722 0.220000 0.216784
v 1.193972 0.220000 0.334711
v 1.162682 0.220000 0.431012
v 0.900618 0.220000 0.386377
v 0.784086 0.220000 0.399512
v 0.841956 0.220000 0.501508
v 1.032103 0.220000 0.687287
v 0.972586 0.220000 0.769205
v 0.737141 0.220000 0.645773
v 0.622254 0.220000 0.622254
v 0.645773 0.220000 0.737141
v 0.769205 0.220000 0.972586
v 0.687287 0.220000 1.032103
v 0.501508 0.220000 0.841956
v 0.399512 0.220000 0.784086
v 0.386377 0.220000 0.900618
v 0.431012 0.220000 1.162682
v 0.334711 0.220000 1.193972
v 0.216784 0.220000 0.955722
v 0.137662 0.220000 0.869166
v 0.089161 0.220000 0.975936
v 0.050628 0.220000 1.238966
v -0.050628 0.220000 1.238966
v -0.089161 0.220000 0.975936
v -0.137662 0.220000 0.869166
v -0.216784 0.220000 0.955722
v -0.334711 0.220000 1.193972
v -0.431012 0.220000 1.162682
v -0.386377 0.220000 0.900618
v -0.399512 0.220000 0.784086
v -0.501508 0.220000 0.841956
v -0.687287 0.220000 1.032103
v -0.769205 0.220000 0.972586
v -0.645773 0.220000 0.737141
v -0.622254 0.220000 0.622254
v -0.737141 0.220000 0.645773
v -0.972586 0.220000 0.769205
v -1.032103 0.220000 0.687287
v -0.841956 0.220000 0.501508
v -0.784086 0.220000 0.399512
v -0.900618 0.220000 0.386377
v -1.162682 0.220000 0.431012
v -1.193972 0.220000 0.334711
v -0.955722 0.220000 0.216784
v -0.869166 0.220000 0.137662
v -0.975936 0.220000 0.089161
v -1.238966 0.220000 0.050628
v -1.238966 0.220000 -0.050628
v -0.975936 0.220000 -0.089161
v -0.869166 0.220000 -0.137662
v -0.955722 0.220000 -0.216784
v -1.193972 0.220000 -0.334711
v -1.162682 0.220000 -0.431012
v -0.900618 0.220000 -0.386377
v -0.784086 0.220000 -0.399512
v -0.841956 0.220000 -0.501508
v -1.032103 0.220000 -0.687287
v -0.972586 0.220000 -0.769205
v -0.737141 0.220000 -0.645773
v -0.622254 0.220000 -0.622254
v -0.645773 0.220000 -0.737141
v -0.769205 0.220000 -0.972586
v -0.687287 0.220000 -1.032103
v -0.501508 0.220000 -0.841956
v -0.399512 0.220000 -0.784086
v -0.386377 0.220000 -0.900618
v -0.431012 0.220000 -1.162682
v -0.334711 0.220000 -1.193972
v -0.216784 0.220000 -0.955722
v -0.137662 0.220000 -0.869166
v -0.089161 0.220000 -0.975936
v -0.050628 0.220000 -1.238966
v 0.050628 0.220000 -1.238966
v 0.089161 0.220000 -0.975936
v 0.137662 0.220000 -0.869166
v 0.216784 0.220000 -0.955722
v 0.334711 0.220000 -1.193972
v 0.431012 0.220000 -1.162682
v 0.386377 0.220000 -0.900618
v 0.399512 0.220000 -0.784086
v 0.501508 0.220000 -0.841956
v 0.687287 0.220000 -1.032103
v 0.769205 0.220000 -0.972586
v 0.645773 0.220000 -0.737141
v 0.622254 0.220000 -0.622254
v 0.737141 0.220000 -0.645773
v 0.972586 0.220000 -0.769205
v 1.032103 0.220000 -0.687287
v 0.841956 0.220000 -0.501508
v 0.784086 0.220000 -0.399512
v 0.900618 0.220000 -0.386377
v 1.162682 0.220000 -0.431012
v 1.193972 0.220000 -0.334711
v 0.955722 0.220000 -0.216784
v 0.869166 -0.220000 -0.137662
v 0.975936 -0.220000 -0.089161
v 1.238966 -0.220000 -0.050628
v 1.238966 -0.220000 0.050628
v 0.975936 -0.220000 0.089161
v 0.869166 -0.220000 0.137662
v 0.955722 -0.220000 0.216784
v 1.193972 -0.220000 0.334711
v 1.162682 -0.220000 0.431012
v 0.900618 -0.220000 0.386377
v 0.784086 -0.220000 0.399512
v 0.841956 -0.220000 0.501508
v 1.032103 -0.220000 0.687287
v 0.972586 -0.220000 0.769205
v 0.737141 -0.220000 0.645773
v 0.622254 -0.220000 0.622254
v 0.645773 -0.220000 0.737141
v 0.769205 -0.220000 0.972586
v 0.687287 -0.220000 1.032103
v 0.501508 -0.220000 0.841956
v 0.399512 -0.220000 0.784086
v 0.386377 -0.220000 0.900618
v 0.431012 -0.220000 1.162682
v 0.334711 -0.220000 1.193972
v 0.216784 -0.220000 0.955722
v 0.137662 -0.220000 0.869166
v 0.089161 -0.220000 0.975936
v 0.050628 -0.220000 1.238966
v -0.050628 -0.220000 1.238966
v -0.089161 -0.220000 0.975936
v -0.137662 -0.220000 0.869166
v -0.216784 -0.220000 0.955722
v -0.334711 -0.220000 1.193972
v -0.431012 -0.220000 1.162682
v -0.386377 -0.220000 0.900618
v -0.399512 -0.220000 0.784086
v -0.501508 -0.220000 0.841956
v -0.687287 -0.220000 1.032103
v -0.769205 -0.220000 0.972586
v -0.645773 -0.220000 0.737141
v -0.622254 -0.220000 0.622254
v -0.737141 -0.220000 0.645773
v -0.972586 -0.220000 0.769205
v -1.032103 -0.220000 0.687287
v -0.841956 -0.220000 0.501508
v -0.784086 -0.220000 0.399512
v -0.900618 -0.220000 0.386377
v -1.162682 -0.220000 0.431012
v -1.193972 -0.220000 0.334711
v -0.955722 -0.220000 0.216784
v -0.869166 -0.220000 0.137662
v -0.975936 -0.220000 0.089161
v -1.238966 -0.220000 0.050628
v -1.238966 -0.220000 -0.050628
v -0.975936 -0.220000 -0.089161
v -0.869166 -0.220000 -0.137662
v -0.955722 -0.220000 -0.216784
v -1.193972 -0.220000 -0.334711
v -1.162682 -0.220000 -0.431012
v -0.900618 -0.220000 -0.386377
v -0.784086 -0.220000 -0.399512
v -0.841956 -0.220000 -0.501508
v -1.032103 -0.220000 -0.687287
v -0.972586 -0.220000 -0.769205
v -0.737141 -0.220000 -0.645773
v -0.622254 -0.220000 -0.622254
v -0.645773 -0.220000 -0.737141
v -0.769205 -0.220000 -0.972586
v -0.687287 -0.220000 -1.032103
v -0.501508 -0.220000 -0.841956
v -0.399512 -0.220000 -0.784086
v -0.386377 -0.220000 -0.900618
v -0.431012 -0.220000 -1.162682
v -0.334711 -0.220000 -1.193972
v -0.216784 -0.220000 -0.955722
v -0.137662 -0.220000 -0.869166
v -0.089161 -0.220000 -0.975936
v -0.050628 -0.220000 -1.238966
v 0.050628 -0.220000 -1.238966
v 0.089161 -0.220000 -0.975936
v 0.137662 -0.220000 -0.869166
v 0.216784 -0.220000 -0.955722
v 0.334711 -0.220000 -1.193972
v 0.431012 -0.220000 -1.162682
v 0.386377 -0.220000 -0.900618
v 0.399512 -0.220000 -0.784086
v 0.501508 -0.220000 -0.841956
v 0.687287 -0.220000 -1.032103
v 0.769205 -0.220000 -0.972586
v 0.645773 -0.220000 -0.737141
v 0.622254 -0.220000 -0.622254
v 0.737141 -0.220000 -0.645773
v 0.972586 -0.220000 -0.769205
v 1.032103 -0.220000 -0.687287
v 0.841956 -0.220000 -0.501508
v 0.784086 -0.220000 -0.399512
v 0.900618 -0.220000 -0.386377
v 1.162682 -0.220000 -0.431012
v 1.193972 -0.220000 -0.334711
v 0.955722 -0.220000 -0.216784
f 1 4 3
f 2 103 104
f 1 5 4
f 2 104 105
f 1 6 5
f 2 105 106
f 1 7 6
f 2 106 107
f 1 8 7
f 2 107 108
f 1 9 8
f 2 108 109
f 1 10 9
f 2 109 110
f 1 11 10
f 2 110 111
f 1 12 11
f 2 111 112
f 1 13 12
f 2 112 113
f 1 14 13
f 2 113 114
f 1 15 14
f 2 114 115
f 1 16 15
f 2 115 116
f 1 17 16
f 2 116 117
f 1 18 17
f 2 117 118
f 1 19 18
f 2 118 119
f 1 20 19
f 2 119 120
f 1 21 20
f 2 120 121
f 1 22 21
f 2 121 122
f 1 23 22
f 2 122 123
f 1 24 23
f 2 123 124
f 1 25 24
f 2 124 125
f 1 26 25
f 2 125 126
f 1 27 26
f 2 126 127
f 1 28 27
f 2 127 128
f 1 29 28
f 2 128 129
f 1 30 29
f 2 129 130
f 1 31 30
f 2 130 131
f 1 32 31
f 2 131 132
f 1 33 32
f 2 132 133
f 1 34 33
f 2 133 134
f 1 35 34
f 2 134 135
f 1 36 35
f 2 135 136
f 1 37 36
f 2 136 137
f 1 38 37
f 2 137 138
f 1 39 38
f 2 138 139
f 1 40 39
f 2 139 140
f 1 41 40
f 2 140 141
f 1 42 41
f 2 141 142
f 1 43 42
f 2 142 143
f 1 44 43
f 2 143 144
f 1 45 44
f 2 144 145
f 1 46 45
f 2 145 146
f 1 47 46
f 2 146 147
f 1 48 47
f 2 147 148
f 1 49 48
f 2 148 149
f 1 50 49
f 2 149 150
f 1 51 50
f 2 150 151
f 1 52 51
f 2 151 152
f 1 53 52
f 2 152 153
f 1 54 53
f 2 153 154
f 1 55 54
f 2 154 155
f 1 56 55
f 2 155 156
f 1 57 56
f 2 156 157
f 1 58 57
f 2 157 158
f 1 59 58
f 2 158 159
f 1 60 59
f 2 159 160
f 1 61 60
f 2 160 161
f 1 62 61
f 2 161 162
f 1 63 62
f 2 162 163
f 1 64 63
f 2 163 164
f 1 65 64
f 2 164 165
f 1 66 65
f 2 165 166
f 1 67 66
f 2 166 167
f 1 68 67
f 2 167 168
f 1 69 68
f 2 168 169
f 1 70 69
f 2 169 170
f 1 71 70
f 2 170 171
f 1 72 71
f 2 171 172
f 1 73 72
f 2 172 173
f 1 74 73
f 2 173 174
f 1 75 74
f 2 174 175
f 1 76 75
f 2 175 176
f 1 77 76
f 2 176 177
f 1 78 77
f 2 177 178
f 1 79 78
f 2 178 179
f 1 80 79
f 2 179 180
f 1 81 80
f 2 180 181
f 1 82 81
f 2 181 182
f 1 83 82
f 2 182 183
f 1 84 83
f 2 183 184
f 1 85 84
f 2 184 185
f 1 86 85
f 2 185 186
f 1 87 86
f 2 186 187
f 1 88 87
f 2 187 188
f 1 89 88
f 2 188 189
f 1 90 89
f 2 189 190
f 1 91 90
f 2 190 191
f 1 92 91
f 2 191 192
f 1 93 92
f 2 192 193
f 1 94 93
f 2 193 194
f 1 95 94
f 2 194 195
f 1 96 95
f 2 195 196
f 1 97 96
f 2 196 197
f 1 98 97
f 2 197 198
f 1 99 98
f 2 198 199
f 1 100 99
f 2 199 200
f 1 101 100
f 2 200 201
f 1 102 101
f 2 201 202
f 1 3 102
f 2 202 103
f 3 104 103
f 3 4 104
f 4 105 104
f 4 5 105
f 5 106 105
f 5 6 106
f 6 107 106
f 6 7 107
f 7 108 107
f 7 8 108
f 8 109 108
f 8 9 109
f 9 110 109
f 9 10 110
f 10 111 110
f 10 11 111
f 11 112 111
f 11 12 112
f 12 113 112
f 12 13 113
f 13 114 113
f 13 14 114
f 14 115 114
f 14 15 115
f 15 116 115
f 15 16 116
f 16 117 116
f 16 17 117
f 17 118 117
f 17 18 118
f 18 119 118
f 18 19 119
f 19 120 119
f 19 20 120
f 20 121 120
f 20 21 121
f 21 122 121
f 21 22 122
f 22 123 122
f 22 23 123
f 23 124 123
f 23 24 124
f 24 125 124
f 24 25 125
f 25 126 125
f 25 26 126
f 26 127 126
f 26 27 127
f 27 128 127
f 27 28 128
f 28 129 128
f 28 29 129
f 29 130 129
f 29 30 130
f 30 131 130
f 30 31 131
f 31 132 131
f 31 32 132
f 32 133 132
f 32 33 133
f 33 134 133
f 33 34 134
f 34 135 134
f 34 35 135
f 35 136 135
f 35 36 136
f 36 137 136
f 36 37 137
f 37 138 137
f 37 38 138
f 38 139 138
f 38 39 139
f 39 140 139
f 39 40 140
f 40 141 140
f 40 41 141
f 41 142 141
f 41 42 142
f 42 143 142
f 42 43 143
f 43 144 143
f 43 44 144
f 44 145 144
f 44 45 145
f 45 146 145
f 45 46 146
f 46 147 146
f 46 47 147
f 47 148 147
f 47 48 148
f 48 149 148
f 48 49 149
f 49 150 149
f 49 50 150
f 50 151 150
f 50 51 151
f 51 152 151
f 51 52 152
f 52 153 152
f 52 53 153
f 53 154 153
f 53 54 154
f 54 155 154
f 54 55 155
f 55 156 155
f 55 56 156
f 56 157 156
f 56 57 157
f 57 158 157
f 57 58 158
f 58 159 158
f 58 59 159
f 59 160 159
f 59 60 160
f 60 161 160
f 60 61 161
f 61 162 161
f 61 62 162
f 62 163 162
f 62 63 163
f 63 164 163
f 63 64 164
f 64 165 164
f 64 65 165
f 65 166 165
f 65 66 166
f 66 167 166
f 66 67 167
f 67 168 167
f 67 68 168
f 68 169 168
f 68 69 169
f 69 170 169
f 69 70 170
f 70 171 170
f 70 71 171
f 71 172 171
f 71 72 172
f 72 173 172
f 72 73 173
f 73 174 173
f 73 74 174
f 74 175 174
f 74 75 175
f 75 176 175
f 75 76 176
f 76 177 176
f 76 77 177
f 77 178 177
f 77 78 178
f 78 179 178
f 78 79 179
f 79 180 179
f 79 80 180
f 80 181 180
f 80 81 181
f 81 182 181
f 81 82 182
f 82 183 182
f 82 83 183
f 83 184 183
f 83 84 184
f 84 185 184
f 84 85 185
f 85 186 185
f 85 86 186
f 86 187 186
f 86 87 187
f 87 188 187
f 87 88 188
f 88 189 188
f 88 89 189
f 89 190 189
f 89 90 190
f 90 191 190
f 90 91 191
f 91 192 191
f 91 92 192
f 92 193 192
f 92 93 193
f 93 194 193
f 93 94 194
f 94 195 194
f 94 95 195
f 95 196 195
f 95 96 196
f 96 197 196
f 96 97 197
f 97 198 197
f 97 98 198
f 98 199 198
f 98 99 199
f 99 200 199
f 99 100 200
f 100 201 200
f 100 101 201
f 101 202 201
f 101 102 202
f 102 103 202
f 102 3 103
